# xmcd
#
# Track frame offsets:
#	150
#	16270
#	28335
#	56215
#	70500
#	82342
#	103222
#	120165
#	138717
#	160022
#	179415
#	196430
#	213965
#	240640
#	261725
#
# Disc length: 3945 seconds
#
# Revision: 1
# Processed by: cddbd v1.4PL0 Copyright (c) Steve Scherf et al.
# Submitted via: audiograbber 1.81.02
#
DISCID=df0f670f
DTITLE=The Fabricators - Now Appearing
DYEAR=1900
DGENRE=
TTITLE0=Try Me
TTITLE1=She Thinks I Do
TTITLE2=Heaven Bound
TTITLE3=Never In My Life
TTITLE4=Love Gun
TTITLE5=I've Been A Fool
TTITLE6=Now You Know
TTITLE7=Good Advice
TTITLE8=I Need Your Love
TTITLE9=I Do My Best
TTITLE10=Feels So Right
TTITLE11=I'm Leaving
TTITLE12=Woke Up This Morning
TTITLE13=Victims (Best Laid Plans)
TTITLE14=Tramp
EXTD=
EXTT0=
EXTT1=
EXTT2=
EXTT3=
EXTT4=
EXTT5=
EXTT6=
EXTT7=
EXTT8=
EXTT9=
EXTT10=
EXTT11=
EXTT12=
EXTT13=
EXTT14=
PLAYORDER=
